<svg xmlns="http://www.w3.org/2000/svg" viewBox="0 0 2000 572" width="180px"><path d="M746 254c-36 0-59 27-59 74 0 44 20 77 59 77 37 0 61-30 61-78 0-50-27-73-61-73zM1727 380c0 16 8 29 30 29 25 0 52-18 54-60l-36-3c-26 0-48 7-48 34z"/><path d="M0 0v572h2000V0H0zm582 454H477V314c0-44-14-60-43-60-34 0-48 24-48 59v87h33v54H315V314c0-44-15-60-43-60-35 0-48 24-48 59v87h47v54H119v-54h33V259h-33v-55h105v38c15-27 41-43 76-43 36 0 69 17 81 54 14-33 42-54 82-54 45 0 86 27 86 87v114h33v54zm161 6c-77 0-130-47-130-127 0-73 44-134 134-134s134 61 134 131c0 79-58 130-138 130zm404-6H928l-7-37 138-158h-79l-11 38-51-5 9-88h219l6 38-139 158h81l12-39 57 6-16 87zm143 0h-75v-90h75v90zm0-160h-75v-90h75v90zm47 160l108-381h70l-108 381h-70zm145 0l108-381h71l-109 381h-70zm384 6c-33 0-52-20-55-50a91 91 0 01-80 50c-37 0-78-20-78-72 1-61 60-76 117-76l41 2v-8c0-25-1-56-41-56-15 0-27 1-38 7l-8 29-57-7 9-57c44-18 66-23 107-23 54 0 100 28 100 85v109c0 14 5 19 17 19 3 0 7 0 10-2l1 38c-13 8-30 12-45 12z"/></svg>